HIERARCHY
ROOT Pelvis
{
	OFFSET 0.000000 0.000000 0.000000
	CHANNELS 6 Xposition Yposition Zposition Xrotation Yrotation Zrotation
	JOINT LeftUpLeg_virtual
	{
		OFFSET 0.000000 0.000000 0.000000
		CHANNELS 3 Xrotation Yrotation Zrotation
		JOINT LeftUpLeg
		{
			OFFSET 8.479700 -4.795502 -0.379100
			CHANNELS 3 Xrotation Yrotation Zrotation
			JOINT LeftLeg
			{
				OFFSET 0.024144 -32.555107 0.112900
				CHANNELS 3 Xrotation Yrotation Zrotation
				JOINT LeftFoot
				{
					OFFSET -0.024144 -32.638630 -3.012600
					CHANNELS 3 Xrotation Yrotation Zrotation
					JOINT LeftToeBase
					{
						OFFSET 0.970200 -13.225400 11.864200
						CHANNELS 3 Xrotation Yrotation Zrotation
						End Site
						{
							OFFSET 0 0 0
						}
					}
				}
			}
		}
	}
	JOINT RightUpLeg_virtual
	{
		OFFSET 0.000000 0.000000 0.000000
		CHANNELS 3 Xrotation Yrotation Zrotation
		JOINT RightUpLeg
		{
			OFFSET -8.479700 -4.795502 -0.379100
			CHANNELS 3 Xrotation Yrotation Zrotation
			JOINT RightLeg
			{
				OFFSET -0.023144 -32.555092 0.112900
				CHANNELS 3 Xrotation Yrotation Zrotation
				JOINT RightFoot
				{
					OFFSET 0.023144 -32.638641 -3.012700
					CHANNELS 3 Xrotation Yrotation Zrotation
					JOINT RightToeBase
					{
						OFFSET -0.970200 -13.225400 11.864200
						CHANNELS 3 Xrotation Yrotation Zrotation
						End Site
						{
							OFFSET 0 0 0
						}
					}
				}
			}
		}
	}
	JOINT Hips_virtual
	{
		OFFSET 0.000000 0.000000 0.000000
		CHANNELS 3 Xrotation Yrotation Zrotation
		JOINT Hips
		{
			OFFSET -0.000000 -0.000000 -0.000000
			CHANNELS 3 Xrotation Yrotation Zrotation
			JOINT Spine
			{
				OFFSET 0.000000 7.722000 1.166200
				CHANNELS 3 Xrotation Yrotation Zrotation
				JOINT Spine1
				{
					OFFSET 0.000000 12.024101 0.248800
					CHANNELS 3 Xrotation Yrotation Zrotation
					JOINT Spine2
					{
						OFFSET 0.000000 11.502998 -0.491200
						CHANNELS 3 Xrotation Yrotation Zrotation
						JOINT Neck_virtual
						{
							OFFSET 0.000000 0.000000 0.000000
							CHANNELS 3 Xrotation Yrotation Zrotation
							JOINT Neck
							{
								OFFSET 0.000000 18.430702 -3.123100
								CHANNELS 3 Xrotation Yrotation Zrotation
								JOINT Head
								{
									OFFSET 0.000000 9.051102 1.034000
									CHANNELS 3 Xrotation Yrotation Zrotation
									End Site
									{
										OFFSET 0 0 0
									}
								}
							}
						}
						JOINT LeftShoulder_virtual
						{
							OFFSET 0.000000 0.000000 0.000000
							CHANNELS 3 Xrotation Yrotation Zrotation
							JOINT LeftShoulder
							{
								OFFSET 6.197800 13.665199 -4.064700
								CHANNELS 3 Xrotation Yrotation Zrotation
								JOINT LeftArm
								{
									OFFSET 7.778100 -0.187103 -1.709300
									CHANNELS 3 Xrotation Yrotation Zrotation
									JOINT LeftForeArm
									{
										OFFSET 22.049376 0.000000 0.000000
										CHANNELS 3 Xrotation Yrotation Zrotation
										JOINT LeftHand
										{
											OFFSET 23.009392 0.000000 0.000000
											CHANNELS 3 Xrotation Yrotation Zrotation
											End Site
											{
												OFFSET 0 0 0
											}
										}
									}
								}
							}
						}
						JOINT RightShoulder_virtual
						{
							OFFSET 0.000000 0.000000 0.000000
							CHANNELS 3 Xrotation Yrotation Zrotation
							JOINT RightShoulder
							{
								OFFSET -6.197800 13.665199 -4.064700
								CHANNELS 3 Xrotation Yrotation Zrotation
								JOINT RightArm
								{
									OFFSET -7.778100 -0.187103 -1.709300
									CHANNELS 3 Xrotation Yrotation Zrotation
									JOINT RightForeArm
									{
										OFFSET -22.049376 0.000000 0.000000
										CHANNELS 3 Xrotation Yrotation Zrotation
										JOINT RightHand
										{
											OFFSET -23.009392 0.000000 0.000000
											CHANNELS 3 Xrotation Yrotation Zrotation
											End Site
											{
												OFFSET 0 0 0
											}
										}
									}
								}
							}
						}
					}
				}
			}
		}
	}
}
MOTION
Frames: 4
Frame Time: 0.03333333
0.422243 76.320869 -0.515678 0.000000 0.000000 0.000000 33.950521 -23.398493 7.262213 -77.972640 6.499532 21.230649 94.516315 5.517557 -4.905777 9.099469 -5.055303 2.073099 0.000000 0.000000 0.000000 33.950521 -23.398493 7.262213 -47.765039 4.691030 6.131185 45.650536 4.361678 0.469512 -18.280189 -1.914999 -0.140871 0.000000 0.000000 0.000000 33.950521 -23.398493 7.262213 0.000002 0.000000 0.000000 11.641776 3.975865 -2.241956 5.818540 0.259721 -2.809625 0.000000 0.000000 0.000000 -10.931776 0.793505 3.196301 0.763620 9.298930 -8.496118 0.000000 0.000000 0.000000 -10.931776 0.793505 3.196301 1.952249 -2.052954 14.106886 -76.027348 17.447740 -39.907631 -79.531146 -83.559653 -82.552508 0.000000 0.000000 0.000000 -10.931776 0.793505 3.196301 4.985259 19.106682 8.633889 -22.095479 5.720157 42.521322 29.456666 69.546851 -32.206186 0.000000 0.000000 0.000000 
0.085341 76.843269 4.837410 0.000000 0.000000 0.000000 32.035315 -22.077395 6.893703 -80.704060 5.773215 20.466211 91.301550 5.777886 -4.362590 8.106886 -5.031566 0.630373 0.000000 0.000000 0.000000 32.035315 -22.077395 6.893703 -41.948372 4.408246 3.545003 44.727828 3.199661 0.168945 -15.446797 -4.783103 2.659716 0.000000 0.000000 0.000000 32.035315 -22.077395 6.893703 0.000000 0.000001 -0.000001 13.531511 4.447849 -4.276758 4.946193 0.681146 -1.790054 0.000000 0.000000 0.000000 -10.657563 0.747527 3.502206 -0.964062 8.765078 -7.245215 0.000000 0.000000 0.000000 -10.657563 0.747527 3.502206 1.850591 -1.530463 12.872929 -74.590215 15.606154 -37.843360 -144.942160 -87.295637 -147.418527 0.000000 0.000000 0.000000 -10.657563 0.747527 3.502206 4.599374 20.091985 7.394487 -22.228627 2.483222 40.725898 73.013896 78.448718 -77.195761 0.000000 0.000000 0.000000 
-0.281512 77.470383 10.248089 0.000000 0.000000 0.000000 30.084234 -20.720984 6.639698 -82.549769 5.484636 19.464221 86.313394 6.336184 -3.871055 7.235258 -4.938420 -0.939472 0.000000 0.000000 0.000000 30.084234 -20.720984 6.639698 -34.907820 4.084942 0.988502 41.503262 2.299884 -0.134472 -11.157531 -7.942186 6.028496 0.000000 0.000000 0.000000 30.084234 -20.720984 6.639698 -0.000001 0.000001 0.000000 15.513071 5.011852 -6.605651 4.029745 1.227234 -0.599440 0.000000 0.000000 0.000000 -10.285321 0.762049 3.923220 -2.852081 7.836788 -6.163745 0.000000 0.000000 0.000000 -10.285321 0.762049 3.923220 1.718140 -1.109382 11.529361 -73.265479 13.679098 -35.280543 149.354654 -84.574578 147.520543 0.000000 0.000000 0.000000 -10.285321 0.762049 3.923220 4.280033 20.150723 5.717931 -22.945329 2.376927 38.931474 122.509838 76.439803 -127.618287 0.000000 0.000000 0.000000 
-0.660580 78.116394 15.636871 0.000000 0.000000 0.000000 28.118617 -19.354302 6.455669 -82.855570 5.776011 18.169910 79.513825 7.198486 -3.375888 6.381631 -4.789733 -2.479910 0.000000 0.000000 0.000000 28.118617 -19.354302 6.455669 -27.287859 3.745975 -1.359192 37.108575 1.005390 -0.415764 -6.174640 -10.466216 9.531433 0.000000 0.000000 0.000000 28.118617 -19.354302 6.455669 -0.000001 0.000001 0.000000 17.591548 5.654890 -9.061213 3.077287 1.862033 0.679605 0.000000 0.000000 0.000000 -9.831928 0.832859 4.395545 -4.861702 6.567924 -5.254666 0.000000 0.000000 0.000000 -9.831928 0.832859 4.395545 1.645554 -1.000238 9.830197 -71.214503 12.734336 -32.673586 152.443757 -81.794862 151.117976 0.000000 0.000000 0.000000 -9.831928 0.832859 4.395545 3.982604 19.709892 3.730238 -24.454306 4.678996 37.090516 140.273412 71.780411 -145.773381 0.000000 0.000000 0.000000 
